<svg width="52" height="52" viewBox="0 0 52 52" fill="none" xmlns="http://www.w3.org/2000/svg">
<path d="M6.29289 25.2929C5.90237 25.6834 5.90237 26.3166 6.29289 26.7071L12.6569 33.0711C13.0474 33.4616 13.6805 33.4616 14.0711 33.0711C14.4616 32.6805 14.4616 32.0474 14.0711 31.6569L8.41421 26L14.0711 20.3431C14.4616 19.9526 14.4616 19.3195 14.0711 18.9289C13.6805 18.5384 13.0474 18.5384 12.6569 18.9289L6.29289 25.2929ZM44.5097 27C45.062 27 45.5097 26.5523 45.5097 26C45.5097 25.4477 45.062 25 44.5097 25L44.5097 27ZM7 27L44.5097 27L44.5097 25L7 25L7 27Z" fill="#0072AB"/>
</svg>
