<svg width="21" height="20" viewBox="0 0 21 20" fill="none" xmlns="http://www.w3.org/2000/svg">
<path d="M19.7624 14.1333L15.3874 12.2583C15.2005 12.1787 14.9928 12.1619 14.7956 12.2105C14.5983 12.2591 14.4222 12.3705 14.2937 12.5279L12.3562 14.8951C9.31545 13.4614 6.86837 11.0143 5.43469 7.97358L7.80188 6.03608C7.95957 5.90783 8.07117 5.73169 8.11981 5.53434C8.16844 5.33699 8.15145 5.12916 8.07141 4.94233L6.19641 0.567328C6.10856 0.365925 5.9532 0.201486 5.7571 0.102366C5.561 0.0032464 5.33645 -0.0243417 5.12219 0.0243589L1.05969 0.961859C0.853118 1.00956 0.668812 1.12587 0.536855 1.29181C0.404898 1.45775 0.333082 1.66352 0.33313 1.87553C0.33313 11.8951 8.45422 20.0005 18.4581 20.0005C18.6702 20.0007 18.8761 19.9289 19.0421 19.7969C19.2081 19.665 19.3245 19.4806 19.3722 19.274L20.3097 15.2115C20.3581 14.9962 20.3299 14.7707 20.23 14.5739C20.1301 14.3772 19.9648 14.2214 19.7624 14.1333Z" fill="#CFD3DA"/>
</svg>
