<svg width="1080" height="1080" viewBox="0 0 1080 1080" fill="none" xmlns="http://www.w3.org/2000/svg">
<rect width="1080" height="1080" fill="#0072AB"/>
<path d="M355.269 751C327.205 751 303.094 747.036 282.935 739.107C262.777 730.782 245.978 719.286 232.539 704.619C219.495 689.951 209.811 672.707 203.486 652.886C197.162 633.065 194 611.261 194 587.476V330H269.299V580.34C269.299 598.972 271.275 615.027 275.228 628.506C279.576 641.588 285.505 652.291 293.015 660.616C300.92 668.941 310.011 675.085 320.288 679.049C330.96 683.014 342.819 684.996 355.862 684.996C368.906 684.996 380.764 683.014 391.437 679.049C402.109 675.085 411.2 668.941 418.71 660.616C426.615 652.291 432.544 641.588 436.497 628.506C440.845 615.027 443.019 598.972 443.019 580.34V330H518.318V587.476C518.318 611.261 514.958 633.065 508.238 652.886C501.914 672.707 492.032 689.951 478.593 704.619C465.549 719.286 448.75 730.782 428.196 739.107C407.643 747.036 383.334 751 355.269 751Z" fill="white"/>
<path d="M878.478 385.301C865.434 399.572 849.624 418.204 831.046 441.196C812.468 463.792 793.298 488.569 773.534 515.525C753.771 542.086 734.205 569.637 714.837 598.179C695.864 626.325 679.065 653.084 664.44 678.455H885V742.081H574.319V695.105C582.224 680.437 591.316 664.58 601.593 647.534C612.265 630.091 623.53 612.252 635.388 594.017C647.246 575.782 659.499 557.348 672.148 538.716C685.192 520.084 698.038 502.245 710.687 485.199C723.335 467.757 735.589 451.305 747.447 435.845C759.7 419.988 771.163 405.915 781.835 393.626H584.398V330H878.478V385.301Z" fill="white"/>
</svg>
