<svg width="24" height="24" viewBox="0 0 24 24" fill="none" xmlns="http://www.w3.org/2000/svg">
<path fill-rule="evenodd" clip-rule="evenodd" d="M3.36743 23.4115C3.88314 23.6127 4.65848 23.8502 6.08577 23.9151C7.62862 23.9865 8.09225 24 11.9996 24C15.9085 24 16.3721 23.9857 17.9149 23.9151C19.3422 23.8502 20.1176 23.6127 20.6333 23.4115C21.3166 23.1455 21.8045 22.8288 22.3166 22.3166C22.8288 21.8045 23.1455 21.3173 23.4115 20.634C23.6113 20.1183 23.8502 19.3429 23.9151 17.9157C23.9857 16.3714 24 15.9077 24 12.0004C24 8.09154 23.9857 7.62933 23.9151 6.08506C23.8502 4.65777 23.6127 3.88243 23.4115 3.36672C23.1455 2.68339 22.8295 2.1955 22.3166 1.68336C21.8038 1.17122 21.3166 0.853092 20.6333 0.588463C20.1161 0.388742 19.3422 0.14979 17.9149 0.0848813C16.3707 0.0156923 15.9085 0 11.9996 0C8.09225 0 7.62861 0.0142658 6.08506 0.0848813C4.65777 0.14979 3.88243 0.387315 3.36672 0.588463C2.68268 0.853092 2.1955 1.17122 1.68336 1.68336C1.17193 2.19693 0.854519 2.6841 0.588463 3.36743C0.388742 3.88457 0.14979 4.65848 0.0848813 6.08577C0.0156923 7.63004 0 8.09225 0 12.0011C0 15.9099 0.0142658 16.3728 0.0855946 17.9157C0.150504 19.3429 0.388029 20.1183 0.589176 20.634C0.853806 21.3173 1.17122 21.8045 1.68407 22.3166C2.19693 22.8288 2.6841 23.1455 3.36743 23.4115ZM11.915 9.27645C10.4579 9.27645 9.27709 10.4579 9.27709 11.915C9.27709 13.3721 10.4579 14.5535 11.915 14.5535C13.3721 14.5535 14.5535 13.3721 14.5535 11.915C14.5535 10.4579 13.3721 9.27645 11.915 9.27645ZM11.915 15.9793C9.67031 15.9793 7.85074 14.1597 7.85074 11.915H7.85081C7.85081 9.67018 9.67031 7.85074 11.915 7.85074C14.1597 7.85074 15.9793 9.67031 15.9793 11.915C15.9793 14.1597 14.1597 15.9793 11.915 15.9793ZM15.3503 8.21734C15.246 8.0611 15.1903 7.87745 15.1904 7.68959C15.1906 7.43779 15.2908 7.19637 15.4689 7.01836C15.647 6.84034 15.8884 6.74029 16.1402 6.74017H16.1406C16.3284 6.74025 16.5121 6.79603 16.6682 6.90045C16.8244 7.00488 16.946 7.15327 17.0179 7.32685C17.0897 7.50043 17.1084 7.69141 17.0717 7.87564C17.035 8.05987 16.9444 8.22907 16.8116 8.36185C16.6787 8.49463 16.5094 8.58502 16.3251 8.6216C16.1409 8.65817 15.9499 8.63929 15.7764 8.56733C15.6029 8.49537 15.4546 8.37357 15.3503 8.21734ZM7.24749 18.0854C7.52623 18.194 7.94566 18.3225 8.71734 18.3577V18.3578C9.55139 18.3962 9.80132 18.4038 11.915 18.4038C14.0287 18.4038 14.2793 18.3962 15.1136 18.3578C15.8853 18.3227 16.3048 18.1942 16.5835 18.0855C16.953 17.9417 17.217 17.7701 17.4939 17.4935C17.7707 17.2169 17.9421 16.9532 18.0859 16.5837C18.1939 16.305 18.323 15.8855 18.3582 15.1139C18.3966 14.2789 18.4042 14.0289 18.4042 11.9153C18.4042 9.80157 18.3966 9.55164 18.3582 8.71664C18.3231 7.94496 18.1946 7.5254 18.0859 7.2468C17.9421 6.87726 17.7711 6.61322 17.4939 6.33638C17.2167 6.05955 16.953 5.88757 16.5835 5.74434C16.304 5.6367 15.8853 5.50721 15.1136 5.47206C14.2786 5.43407 14.0277 5.4259 11.915 5.4259C9.80227 5.4259 9.55164 5.43356 8.71734 5.47194C7.94566 5.50702 7.5261 5.63556 7.24749 5.74421C6.87732 5.88744 6.61391 6.05904 6.33708 6.33625C6.06024 6.61347 5.8889 6.87713 5.74504 7.24667C5.63739 7.5261 5.5079 7.94484 5.47276 8.71652C5.43502 9.55152 5.42673 9.80144 5.42673 11.9151C5.42673 14.0288 5.43439 14.2794 5.47276 15.1137C5.50784 15.8854 5.63638 16.305 5.74504 16.5836C5.88827 16.9531 6.05986 17.2165 6.33708 17.4934C6.61429 17.7702 6.87796 17.9415 7.24749 18.0854ZM6.73061 4.41557C7.23344 4.21991 7.80921 4.08631 8.6518 4.04793H8.65212C9.49649 4.00893 9.76681 4 11.9159 4C14.0651 4 14.3348 4.00937 15.1788 4.04793C16.0208 4.08567 16.5962 4.21991 17.1 4.41557C17.6198 4.61762 18.0617 4.888 18.5015 5.32852C18.9413 5.76903 19.2118 6.21018 19.4144 6.73061C19.6101 7.23344 19.7437 7.80914 19.7821 8.6518C19.8204 9.49573 19.8294 9.76554 19.8294 11.915C19.8294 14.0645 19.8204 14.3336 19.7821 15.1782C19.7443 16.0208 19.6101 16.5962 19.4144 17.0994C19.2118 17.6198 18.942 18.0617 18.5015 18.5015C18.061 18.9413 17.6198 19.2118 17.0994 19.4144C16.5962 19.6101 16.0209 19.7437 15.1782 19.7821C14.3343 19.8211 14.0645 19.83 11.915 19.83C9.76554 19.83 9.49618 19.8204 8.6518 19.7821C7.80921 19.7437 7.23439 19.6101 6.73061 19.4144C6.20955 19.2118 5.76897 18.9411 5.32852 18.5015C4.88806 18.0619 4.61762 17.6198 4.41557 17.0994C4.21991 16.5962 4.08631 16.0209 4.04793 15.1782C4.00893 14.3343 4 14.0645 4 11.915C4 9.76554 4.00893 9.49573 4.04793 8.6518C4.08631 7.8092 4.21991 7.23375 4.41557 6.73061C4.61762 6.20955 4.888 5.76834 5.32852 5.32852C5.76903 4.8887 6.21018 4.61762 6.73061 4.41557Z" fill="#0072AB"/>
</svg>
